<svg width="346" height="366" viewBox="0 0 346 366" fill="none" xmlns="http://www.w3.org/2000/svg">
<path fill-rule="evenodd" clip-rule="evenodd" d="M179.096 3.79761C176.417 -0.947352 169.583 -0.947344 166.904 3.79762L131.822 65.9408C130.254 68.7175 127.008 70.0839 123.927 69.2643L57.7264 51.6551C52.614 50.2952 47.8987 54.8796 49.1143 60.0283L66.0168 131.622C66.7015 134.522 65.4752 137.538 62.9609 139.137L3.286 177.094C-1.0382 179.844 -1.03821 186.156 3.286 188.906L62.9609 226.863C65.4752 228.462 66.7015 231.478 66.0168 234.378L49.1143 305.972C47.8987 311.12 52.614 315.705 57.7264 314.345L123.927 296.736C127.008 295.916 130.254 297.283 131.822 300.059L166.904 362.202C169.583 366.947 176.417 366.947 179.096 362.202L214.178 300.059C215.746 297.283 218.992 295.916 222.073 296.736L288.274 314.345C293.386 315.705 298.101 311.12 296.886 305.972L279.983 234.378C279.299 231.478 280.525 228.462 283.039 226.863L342.714 188.906C347.038 186.156 347.038 179.844 342.714 177.094L283.039 139.137C280.525 137.538 279.299 134.522 279.983 131.622L296.886 60.0283C298.101 54.8796 293.386 50.2952 288.274 51.6551L222.073 69.2643C218.992 70.0839 215.746 68.7175 214.178 65.9408L179.096 3.79761ZM252 183C252 226.63 216.63 262 173 262C129.37 262 94 226.63 94 183C94 139.37 129.37 104 173 104C216.63 104 252 139.37 252 183ZM272 183C272 237.676 227.676 282 173 282C118.324 282 74 237.676 74 183C74 128.324 118.324 84 173 84C227.676 84 272 128.324 272 183Z" fill="#FFC107"/>
</svg>
