<svg width="584" height="366" viewBox="0 0 584 366" fill="none" xmlns="http://www.w3.org/2000/svg">
<path fill-rule="evenodd" clip-rule="evenodd" d="M134.595 4.34485C131.917 -0.400105 125.083 -0.400109 122.404 4.34485L98.4112 46.8446C96.8436 49.6213 93.5976 50.9878 90.5161 50.1681L45.243 38.1256C40.1306 36.7657 35.4153 41.3501 36.6309 46.4987L48.2891 95.879C48.9737 98.7791 47.7475 101.795 45.2332 103.394L4.06444 129.58C-0.259763 132.33 -0.25976 138.642 4.06444 141.393L45.2332 167.578C47.7475 169.178 48.9737 172.193 48.2891 175.093L36.6309 224.473C35.4153 229.622 40.1306 234.207 45.243 232.847L90.5161 220.804C93.5976 219.984 96.8436 221.351 98.4112 224.128L122.404 266.627C125.083 271.372 131.917 271.372 134.595 266.627L158.588 224.128C160.156 221.351 163.402 219.984 166.484 220.804L211.757 232.847C216.869 234.207 221.584 229.622 220.369 224.474L208.71 175.093C208.026 172.193 209.252 169.178 211.766 167.578L252.935 141.393C257.259 138.642 257.259 132.33 252.935 129.58L211.766 103.394C209.252 101.795 208.026 98.7791 208.71 95.8791L220.369 46.4987C221.584 41.3501 216.869 36.7657 211.757 38.1256L166.484 50.1681C163.402 50.9878 160.156 49.6214 158.588 46.8446L134.595 4.34485ZM182.458 135.486C182.458 165.286 158.3 189.444 128.5 189.444C98.7001 189.444 74.5424 165.286 74.5424 135.486C74.5424 105.686 98.7001 81.5285 128.5 81.5285C158.3 81.5285 182.458 105.686 182.458 135.486ZM202.458 135.486C202.458 176.332 169.346 209.444 128.5 209.444C87.6544 209.444 54.5424 176.332 54.5424 135.486C54.5424 94.6404 87.6544 61.5285 128.5 61.5285C169.346 61.5285 202.458 94.6404 202.458 135.486Z" fill="#FFC107"/>
<path fill-rule="evenodd" clip-rule="evenodd" d="M502.61 366L161.66 366V365.999C161.493 365.999 161.327 366 161.161 366C108.029 366 64.957 323.597 64.957 271.291C64.957 218.985 108.029 176.583 161.161 176.583C161.353 176.583 161.545 176.583 161.737 176.584C161.685 175.095 161.66 173.599 161.66 172.097C161.66 99.6939 221.692 41 295.747 41C344.73 41 387.578 66.6789 410.977 105.019C419.939 101.036 429.862 98.8221 440.302 98.8221C480.22 98.8221 512.579 131.182 512.579 171.1C512.579 183.156 509.628 194.523 504.407 204.517C548.175 205.472 583.362 241.251 583.362 285.248C583.362 329.846 547.208 366 502.61 366Z" fill="#D0E2FE"/>
</svg>
