<svg width="582" height="365" viewBox="0 0 582 365" fill="none" xmlns="http://www.w3.org/2000/svg">
<path d="M241.869 249.795C245.566 246.382 241.944 240.463 236.983 241.301C230.275 242.435 223.384 243.025 216.356 243.025C147.889 243.025 92.3856 187.032 92.3856 117.962C92.3856 71.8255 117.149 31.5243 153.999 9.84745C158.31 7.31156 157.306 0.509753 152.313 0.229599C149.596 0.0772156 146.86 0 144.106 0C64.5183 0 0 64.471 0 144C0 223.529 64.5183 288 144.106 288C181.837 288 216.181 273.51 241.869 249.795Z" fill="#FFE69C"/>
<path fill-rule="evenodd" clip-rule="evenodd" d="M500.789 364.214L159.838 364.214V364.212C159.672 364.213 159.506 364.214 159.34 364.214C106.208 364.214 63.1357 321.811 63.1357 269.505C63.1357 217.199 106.208 174.797 159.34 174.797C159.532 174.797 159.724 174.797 159.915 174.798C159.864 173.309 159.838 171.812 159.838 170.31C159.838 97.9078 219.871 39.2139 293.926 39.2139C342.908 39.2139 385.757 64.8928 409.155 103.233C418.118 99.2494 428.041 97.036 438.481 97.036C478.398 97.036 510.758 129.396 510.758 169.314C510.758 181.37 507.806 192.736 502.586 202.73C546.354 203.686 581.541 239.465 581.541 283.462C581.541 328.06 545.387 364.214 500.789 364.214Z" fill="#D0E2FE"/>
</svg>
