<svg width="584" height="366" viewBox="0 0 584 366" fill="none" xmlns="http://www.w3.org/2000/svg">
<path fill-rule="evenodd" clip-rule="evenodd" d="M492.865 366H108.902V365.998C108.715 365.999 108.528 366 108.34 366C48.5057 366 0 318.248 0 259.343C0 200.439 48.5057 152.687 108.34 152.687L108.524 152.687C108.621 152.687 108.719 152.688 108.816 152.688L108.989 152.689C108.931 151.011 108.902 149.326 108.902 147.635C108.902 66.0984 176.508 0 259.905 0C315.067 0 363.321 28.9184 389.671 72.095C399.764 67.6092 410.939 65.1165 422.696 65.1165C467.65 65.1165 504.092 101.559 504.092 146.512C504.092 160.089 500.767 172.89 494.888 184.145C544.178 185.221 583.804 225.514 583.804 275.061C583.804 325.285 543.089 366 492.865 366Z" fill="#D0E2FE"/>
</svg>
