<svg width="581" height="366" viewBox="0 0 581 366" fill="none" xmlns="http://www.w3.org/2000/svg">
<path fill-rule="evenodd" clip-rule="evenodd" d="M518.692 250.769H255.615V250.768C255.487 250.769 255.359 250.769 255.231 250.769C214.234 250.769 181 218.051 181 177.692C181 137.333 214.234 104.615 255.231 104.615C255.379 104.615 255.527 104.616 255.675 104.617C255.635 103.467 255.615 102.313 255.615 101.154C255.615 45.2881 301.936 0 359.077 0C396.872 0 429.933 19.8138 447.988 49.3967C454.903 46.3233 462.559 44.6154 470.615 44.6154C501.415 44.6154 526.384 69.5841 526.384 100.385C526.384 109.687 524.106 118.458 520.078 126.169C553.85 126.906 581 154.513 581 188.462C581 222.873 553.104 250.769 518.693 250.769C518.692 250.769 518.692 250.769 518.692 250.769Z" fill="#0D6EFD"/>
<path fill-rule="evenodd" clip-rule="evenodd" d="M415.361 366H91.7767V365.999C91.6191 366 91.4615 366 91.3038 366C40.8781 366 0 325.757 0 276.115C0 226.474 40.8781 186.231 91.3038 186.231C91.4859 186.231 91.668 186.231 91.8499 186.232C91.8012 184.819 91.7767 183.399 91.7767 181.973C91.7767 113.258 148.752 57.5541 219.034 57.5541C265.522 57.5541 306.188 81.925 328.395 118.312C336.9 114.532 346.318 112.431 356.226 112.431C394.111 112.431 424.822 143.142 424.822 181.027C424.822 192.469 422.021 203.257 417.066 212.742C458.605 213.648 492 247.605 492 289.362C492 331.688 457.688 366 415.361 366C415.361 366 415.361 366 415.361 366Z" fill="#D0E2FE"/>
</svg>
