<svg width="468" height="368" viewBox="0 0 468 368" fill="none" xmlns="http://www.w3.org/2000/svg">
<path fill-rule="evenodd" clip-rule="evenodd" d="M419.312 195.954H213.741V195.953C213.641 195.954 213.541 195.954 213.44 195.954C181.405 195.954 155.436 170.388 155.436 138.851C155.436 107.314 181.405 81.7476 213.44 81.7476C213.519 81.7476 213.597 81.7477 213.676 81.748L213.787 81.7486C213.756 80.8504 213.741 79.9483 213.741 79.0428C213.741 35.3886 249.937 0 294.587 0C324.12 0 349.955 15.4827 364.063 38.5992C369.466 36.1976 375.449 34.863 381.744 34.863C405.812 34.863 425.323 54.3738 425.323 78.4417C425.323 85.7108 423.543 92.5641 420.395 98.5898C446.785 99.1658 468 120.738 468 147.266C468 174.156 446.202 195.954 419.312 195.954C419.312 195.954 419.312 195.954 419.312 195.954Z" fill="#0D6EFD"/>
<path fill-rule="evenodd" clip-rule="evenodd" d="M338.525 285.997C338.539 285.997 338.553 285.997 338.568 285.997C371.642 285.997 398.454 259.185 398.454 226.11C398.454 193.482 372.359 166.947 339.9 166.239C343.772 158.827 345.961 150.398 345.961 141.457C345.961 111.853 321.962 87.8548 292.359 87.8548C284.617 87.8548 277.258 89.4963 270.611 92.4503C253.258 64.0171 221.482 44.9734 185.156 44.9734C130.236 44.9734 85.7151 88.5014 85.7151 142.196C85.7151 143.31 85.7343 144.419 85.7723 145.524L85.5691 145.523C85.5286 145.523 85.4881 145.523 85.4475 145.523C85.4136 145.523 85.3797 145.523 85.3458 145.523C45.9426 145.523 14 176.969 14 215.76C14 254.55 45.9426 285.997 85.3458 285.997C85.469 285.997 85.5921 285.996 85.7151 285.996V285.997H338.525Z" fill="#D0E2FE"/>
<line x1="105.54" y1="251.012" x2="84.012" y2="304.46" stroke="#0D6EFD" stroke-width="20" stroke-linecap="round"/>
<line x1="238.54" y1="301.012" x2="217.012" y2="354.46" stroke="#0D6EFD" stroke-width="20" stroke-linecap="round"/>
<line x1="339.54" y1="301.012" x2="318.012" y2="354.46" stroke="#0D6EFD" stroke-width="20" stroke-linecap="round"/>
<line x1="207.54" y1="251.012" x2="186.012" y2="304.46" stroke="#0D6EFD" stroke-width="20" stroke-linecap="round"/>
<line x1="309.54" y1="251.012" x2="288.012" y2="304.46" stroke="#0D6EFD" stroke-width="20" stroke-linecap="round"/>
<line x1="136.54" y1="301.012" x2="115.012" y2="354.46" stroke="#0D6EFD" stroke-width="20" stroke-linecap="round"/>
<line x1="34.5397" y1="301.012" x2="13.012" y2="354.46" stroke="#0D6EFD" stroke-width="20" stroke-linecap="round"/>
</svg>
