<svg width="466" height="371" viewBox="0 0 466 371" fill="none" xmlns="http://www.w3.org/2000/svg">
<path fill-rule="evenodd" clip-rule="evenodd" d="M133.774 3.55872C131.095 -1.18624 124.262 -1.18624 121.583 3.55872L97.5899 46.0585C96.0223 48.8352 92.7763 50.2017 89.6948 49.382L44.4217 37.3394C39.3093 35.9795 34.594 40.564 35.8096 45.7126L47.4678 95.0929C48.1525 97.993 46.9262 101.009 44.4119 102.608L3.24315 128.794C-1.08105 131.544 -1.08105 137.856 3.24315 140.606L44.4119 166.792C46.9262 168.391 48.1525 171.407 47.4678 174.307L35.8096 223.687C34.594 228.836 39.3093 233.42 44.4217 232.061L89.6948 220.018C92.7763 219.198 96.0223 220.565 97.5899 223.341L121.583 265.841C124.262 270.586 131.095 270.586 133.774 265.841L157.767 223.341C159.335 220.565 162.581 219.198 165.662 220.018L210.935 232.061C216.048 233.42 220.763 228.836 219.547 223.687L207.889 174.307C207.205 171.407 208.431 168.391 210.945 166.792L252.114 140.606C256.438 137.856 256.438 131.544 252.114 128.794L210.945 102.608C208.431 101.009 207.205 97.993 207.889 95.0929L219.547 45.7126C220.763 40.564 216.048 35.9795 210.935 37.3394L165.662 49.382C162.581 50.2017 159.335 48.8352 157.767 46.0585L133.774 3.55872ZM181.636 134.7C181.636 164.5 157.479 188.658 127.679 188.658C97.8788 188.658 73.7211 164.5 73.7211 134.7C73.7211 104.9 97.8788 80.7423 127.679 80.7423C157.479 80.7423 181.636 104.9 181.636 134.7ZM201.636 134.7C201.636 175.546 168.524 208.658 127.679 208.658C86.8331 208.658 53.7211 175.546 53.7211 134.7C53.7211 93.8543 86.8331 60.7423 127.679 60.7423C168.524 60.7423 201.636 93.8543 201.636 134.7Z" fill="#FFC107"/>
<path fill-rule="evenodd" clip-rule="evenodd" d="M406.028 285.623C439.048 285.623 465.815 258.855 465.815 225.836C465.815 193.261 439.763 166.771 407.358 166.064C411.224 158.665 413.409 150.249 413.409 141.323C413.409 111.769 389.451 87.8102 359.896 87.8102C352.167 87.8102 344.82 89.4488 338.185 92.3978C320.861 64.012 289.137 45 252.872 45C198.044 45 153.596 88.4557 153.596 142.061C153.596 143.173 153.616 144.281 153.654 145.384C153.512 145.383 153.369 145.383 153.227 145.383C113.89 145.383 82 176.776 82 215.503C82 254.229 113.89 285.623 153.227 285.623C153.35 285.623 153.473 285.622 153.596 285.622V285.623H405.985C406 285.623 406.014 285.623 406.028 285.623Z" fill="#D0E2FE"/>
<line x1="172.54" y1="254.039" x2="151.012" y2="307.487" stroke="#0D6EFD" stroke-width="20" stroke-linecap="round"/>
<line x1="305.54" y1="304.039" x2="284.012" y2="357.487" stroke="#0D6EFD" stroke-width="20" stroke-linecap="round"/>
<line x1="406.54" y1="304.039" x2="385.012" y2="357.487" stroke="#0D6EFD" stroke-width="20" stroke-linecap="round"/>
<line x1="274.54" y1="254.039" x2="253.012" y2="307.487" stroke="#0D6EFD" stroke-width="20" stroke-linecap="round"/>
<line x1="376.54" y1="254.039" x2="355.012" y2="307.487" stroke="#0D6EFD" stroke-width="20" stroke-linecap="round"/>
<line x1="203.54" y1="304.039" x2="182.012" y2="357.487" stroke="#0D6EFD" stroke-width="20" stroke-linecap="round"/>
<line x1="101.54" y1="304.039" x2="80.012" y2="357.487" stroke="#0D6EFD" stroke-width="20" stroke-linecap="round"/>
</svg>
