<svg width="466" height="371" viewBox="0 0 466 371" fill="none" xmlns="http://www.w3.org/2000/svg">
<path d="M209.756 219.711C213.513 216.365 209.92 210.414 204.942 211.149C199.771 211.913 194.481 212.309 189.099 212.309C129.257 212.309 80.7465 163.393 80.7465 103.053C80.7465 63.5287 101.56 28.9065 132.737 9.72211C136.998 7.10069 135.954 0.292631 130.956 0.0975228C129.296 0.032709 127.627 0 125.951 0C56.39 0 0 56.3226 0 125.8C0 195.277 56.39 251.6 125.951 251.6C158.131 251.6 187.493 239.546 209.756 219.711Z" fill="#FFE69C"/>
<path fill-rule="evenodd" clip-rule="evenodd" d="M406.028 285.623C439.048 285.623 465.815 258.855 465.815 225.836C465.815 193.261 439.763 166.771 407.358 166.064C411.224 158.665 413.409 150.249 413.409 141.323C413.409 111.769 389.451 87.8102 359.896 87.8102C352.167 87.8102 344.82 89.4488 338.185 92.3978C320.861 64.012 289.137 45 252.872 45C198.044 45 153.596 88.4557 153.596 142.061C153.596 143.173 153.616 144.281 153.654 145.384C153.512 145.383 153.369 145.383 153.227 145.383C113.89 145.383 82 176.776 82 215.503C82 254.229 113.89 285.623 153.227 285.623C153.35 285.623 153.473 285.622 153.596 285.622V285.623H405.985C406 285.623 406.014 285.623 406.028 285.623Z" fill="#D0E2FE"/>
<line x1="172.54" y1="254.039" x2="151.012" y2="307.487" stroke="#0D6EFD" stroke-width="20" stroke-linecap="round"/>
<line x1="305.54" y1="304.039" x2="284.012" y2="357.487" stroke="#0D6EFD" stroke-width="20" stroke-linecap="round"/>
<line x1="406.54" y1="304.039" x2="385.012" y2="357.487" stroke="#0D6EFD" stroke-width="20" stroke-linecap="round"/>
<line x1="274.54" y1="254.039" x2="253.012" y2="307.487" stroke="#0D6EFD" stroke-width="20" stroke-linecap="round"/>
<line x1="376.54" y1="254.039" x2="355.012" y2="307.487" stroke="#0D6EFD" stroke-width="20" stroke-linecap="round"/>
<line x1="203.54" y1="304.039" x2="182.012" y2="357.487" stroke="#0D6EFD" stroke-width="20" stroke-linecap="round"/>
<line x1="101.54" y1="304.039" x2="80.012" y2="357.487" stroke="#0D6EFD" stroke-width="20" stroke-linecap="round"/>
</svg>
