<svg width="454" height="365" viewBox="0 0 454 365" fill="none" xmlns="http://www.w3.org/2000/svg">
<path fill-rule="evenodd" clip-rule="evenodd" d="M405.312 195.954H199.741V195.953C199.641 195.954 199.541 195.954 199.44 195.954C167.405 195.954 141.436 170.388 141.436 138.851C141.436 107.314 167.405 81.7476 199.44 81.7476C199.519 81.7476 199.597 81.7477 199.676 81.748L199.787 81.7486C199.756 80.8504 199.741 79.9483 199.741 79.0428C199.741 35.3886 235.937 0 280.587 0C310.12 0 335.955 15.4827 350.063 38.5992C355.466 36.1976 361.449 34.863 367.744 34.863C391.812 34.863 411.323 54.3738 411.323 78.4417C411.323 85.7108 409.543 92.5641 406.395 98.5898C432.785 99.1658 454 120.738 454 147.266C454 174.156 432.202 195.954 405.312 195.954C405.312 195.954 405.312 195.954 405.312 195.954Z" fill="#0D6EFD"/>
<path fill-rule="evenodd" clip-rule="evenodd" d="M324.525 285.997C324.539 285.997 324.553 285.997 324.568 285.997C357.642 285.997 384.454 259.185 384.454 226.11C384.454 193.482 358.359 166.947 325.9 166.239C329.772 158.827 331.961 150.398 331.961 141.457C331.961 111.853 307.962 87.8548 278.359 87.8548C270.617 87.8548 263.258 89.4963 256.611 92.4503C239.258 64.0171 207.482 44.9734 171.156 44.9734C116.236 44.9734 71.7151 88.5014 71.7151 142.196C71.7151 143.31 71.7343 144.419 71.7723 145.524L71.5691 145.523C71.5286 145.523 71.4881 145.523 71.4475 145.523C71.4136 145.523 71.3797 145.523 71.3458 145.523C31.9426 145.523 0 176.969 0 215.76C0 254.55 31.9426 285.997 71.3458 285.997C71.469 285.997 71.5921 285.996 71.7151 285.996V285.997H324.525Z" fill="#D0E2FE"/>
<line x1="101.482" y1="304.021" x2="84.3857" y2="326.301" stroke="#0D6EFD" stroke-width="20" stroke-linecap="round"/>
<line x1="83.5304" y1="325.31" x2="55.459" y2="333.765" stroke="#0D6EFD" stroke-width="20" stroke-linecap="round"/>
<line x1="82.4359" y1="326.322" x2="65.3399" y2="304.042" stroke="#0D6EFD" stroke-width="20" stroke-linecap="round"/>
<line x1="111.493" y1="334.675" x2="84.2851" y2="326.265" stroke="#0D6EFD" stroke-width="20" stroke-linecap="round"/>
<line x1="84" y1="353.157" x2="84" y2="325.073" stroke="#0D6EFD" stroke-width="20" stroke-linecap="round"/>
<line x1="300.482" y1="305.021" x2="283.386" y2="327.301" stroke="#0D6EFD" stroke-width="20" stroke-linecap="round"/>
<line x1="282.53" y1="326.31" x2="254.459" y2="334.765" stroke="#0D6EFD" stroke-width="20" stroke-linecap="round"/>
<line x1="281.436" y1="327.322" x2="264.34" y2="305.042" stroke="#0D6EFD" stroke-width="20" stroke-linecap="round"/>
<line x1="310.493" y1="335.675" x2="283.285" y2="327.265" stroke="#0D6EFD" stroke-width="20" stroke-linecap="round"/>
<line x1="283" y1="354.157" x2="283" y2="326.073" stroke="#0D6EFD" stroke-width="20" stroke-linecap="round"/>
<line x1="199.482" y1="251.021" x2="182.386" y2="273.301" stroke="#0D6EFD" stroke-width="20" stroke-linecap="round"/>
<line x1="181.53" y1="272.31" x2="153.459" y2="280.765" stroke="#0D6EFD" stroke-width="20" stroke-linecap="round"/>
<line x1="180.436" y1="273.322" x2="163.34" y2="251.042" stroke="#0D6EFD" stroke-width="20" stroke-linecap="round"/>
<line x1="209.493" y1="281.675" x2="182.285" y2="273.265" stroke="#0D6EFD" stroke-width="20" stroke-linecap="round"/>
<line x1="182" y1="300.157" x2="182" y2="272.073" stroke="#0D6EFD" stroke-width="20" stroke-linecap="round"/>
</svg>
