<svg width="411" height="367" viewBox="0 0 411 367" fill="none" xmlns="http://www.w3.org/2000/svg">
<path fill-rule="evenodd" clip-rule="evenodd" d="M351.028 240.623C384.048 240.623 410.815 213.855 410.815 180.836C410.815 148.261 384.763 121.771 352.358 121.064C356.224 113.665 358.409 105.249 358.409 96.3229C358.409 66.7686 334.451 42.8102 304.896 42.8102C297.167 42.8102 289.82 44.4488 283.185 47.3978C265.861 19.012 234.137 0 197.872 0C143.044 0 98.5964 43.4557 98.5964 97.061C98.5964 98.1731 98.6156 99.2807 98.6535 100.384C98.5115 100.383 98.3695 100.383 98.2273 100.383C58.8895 100.383 27 131.776 27 170.503C27 209.229 58.8895 240.623 98.2273 240.623C98.3504 240.623 98.4735 240.622 98.5964 240.622V240.623H350.985C351 240.623 351.014 240.623 351.028 240.623Z" fill="#D0E2FE"/>
<line x1="279.081" y1="357" x2="77" y2="357" stroke="#0D6EFD" stroke-width="20" stroke-linecap="round"/>
<line x1="400" y1="313" x2="205" y2="313" stroke="#0D6EFD" stroke-width="20" stroke-linecap="round"/>
<line x1="146" y1="313" x2="62" y2="313" stroke="#0D6EFD" stroke-width="20" stroke-linecap="round"/>
<line x1="344" y1="274" x2="260" y2="274" stroke="#0D6EFD" stroke-width="20" stroke-linecap="round"/>
<line x1="201" y1="274" x2="10" y2="274" stroke="#0D6EFD" stroke-width="20" stroke-linecap="round"/>
</svg>
