<svg width="237" height="266" viewBox="0 0 237 266" fill="none" xmlns="http://www.w3.org/2000/svg">
<path d="M190.845 252.937C190.845 252.937 217.886 224.538 214.387 191.351C167.673 177.681 143.676 178.766 105.605 198.657C89.369 207.14 76.4441 207.159 16.3063 198.657C21.3905 216.546 25.3242 224.614 34.9779 235.188M9 256.295C36.208 218.567 106.417 243.306 127.524 249.801C148.631 256.295 204.298 262.349 229 231.129M70.6966 37.1071C64.2014 102.052 66.3424 113.878 70.6966 177.55C54.7607 179.303 45.3988 178.419 27.6708 172.679C36.1414 96.4486 48.7778 61.4613 70.6966 37.1071Z" stroke="#198CFF" stroke-width="20"/>
<path d="M103.17 169.432C108.946 106.95 107.129 73.4224 95.8633 16C168.393 41.0779 190.088 74.5304 202.21 161.314C167.884 153.697 146.088 155.749 103.17 169.432Z" stroke="#198CFF" stroke-width="20"/>
</svg>
