<svg width="276" height="267" viewBox="0 0 276 267" fill="none" xmlns="http://www.w3.org/2000/svg">
<path d="M243.081 213.13C196.366 199.46 177.37 201.545 139.299 221.436C123.063 229.919 110.138 229.939 50 221.436" stroke="#198CFF" stroke-width="20"/>
<path d="M100.697 200.55C96.3425 136.878 94.2015 125.052 100.697 60.107C78.7779 84.4612 66.1415 119.449 57.6709 195.679C75.3989 201.419 84.7608 202.303 100.697 200.55Z" stroke="#198CFF" stroke-width="20"/>
<path d="M133.17 191.432C138.946 128.95 137.129 95.4224 125.863 38C198.393 63.0779 220.088 96.5304 232.21 183.314C197.884 175.697 176.088 177.749 133.17 191.432Z" stroke="#198CFF" stroke-width="20"/>
<path d="M265.484 133.438C265.484 201.313 208.593 256.875 137.742 256.875C66.8904 256.875 10 201.313 10 133.438C10 65.5617 66.8904 10 137.742 10C208.593 10 265.484 65.5617 265.484 133.438Z" stroke="#DC3545" stroke-width="20"/>
<path d="M48.4248 42.5063L227.328 224.1" stroke="#DC3545" stroke-width="20"/>
</svg>
