<svg width="237" height="266" viewBox="0 0 237 266" fill="none" xmlns="http://www.w3.org/2000/svg">
<path d="M167.845 252.937C167.845 252.937 194.886 224.537 191.387 191.351C144.673 177.681 120.676 178.766 82.6052 198.657C66.369 207.14 62 211 47.5 215C52.5842 232.889 52.3463 227.928 62 238.502M9 256.295C36.208 218.567 106.417 243.306 127.524 249.801C148.631 256.295 204.298 262.349 229 231.129" stroke="#0D6EFD" stroke-width="20"/>
<path d="M74.1696 169.432C79.946 106.95 78.1293 73.4224 66.8633 16C139.393 41.0779 161.088 74.5304 173.21 161.314C138.884 153.697 117.088 155.749 74.1696 169.432Z" stroke="#0D6EFD" stroke-width="20"/>
</svg>
